<svg width="22" height="35" viewBox="0 0 22 35" fill="none" xmlns="http://www.w3.org/2000/svg">
<path d="M22 24.0625C22 27.0958 20.9293 29.6771 18.788 31.8062C16.6467 33.9354 14.0507 35 11 35C7.94933 35 5.35333 33.9354 3.212 31.8062C1.07067 29.6771 0 27.0958 0 24.0625V7.875C0 5.6875 0.77 3.82812 2.31 2.29688C3.85 0.765625 5.72 0 7.92 0C10.12 0 11.99 0.765625 13.53 2.29688C15.07 3.82812 15.84 5.6875 15.84 7.875V23.1875C15.84 24.5292 15.3707 25.6667 14.432 26.6C13.4933 27.5333 12.3493 28 11 28C9.65067 28 8.50667 27.5333 7.568 26.6C6.62933 25.6667 6.16 24.5292 6.16 23.1875V7H9.68V23.1875C9.68 23.5667 9.80467 23.8802 10.054 24.1281C10.3033 24.376 10.6187 24.5 11 24.5C11.3813 24.5 11.6967 24.376 11.946 24.1281C12.1953 23.8802 12.32 23.5667 12.32 23.1875V7.875C12.2907 6.65 11.858 5.61458 11.022 4.76875C10.186 3.92292 9.152 3.5 7.92 3.5C6.688 3.5 5.64667 3.92292 4.796 4.76875C3.94533 5.61458 3.52 6.65 3.52 7.875V24.0625C3.49067 26.1333 4.20933 27.8906 5.676 29.3344C7.14267 30.7781 8.91733 31.5 11 31.5C13.0533 31.5 14.7987 30.7781 16.236 29.3344C17.6733 27.8906 18.4213 26.1333 18.48 24.0625V7H22V24.0625Z" fill="#5F6368"/>
</svg>
